<?xml version="1.0" standalone="no"?>
<!DOCTYPE svg PUBLIC "-//W3C//DTD SVG 20010904//EN"
 "http://www.w3.org/TR/2001/REC-SVG-20010904/DTD/svg10.dtd">
<svg version="1.0" xmlns="http://www.w3.org/2000/svg"
 width="200.000000pt" height="200.000000pt" viewBox="0 0 200.000000 200.000000"
 preserveAspectRatio="xMidYMid meet">
<metadata>
Created by potrace 1.14, written by Peter Selinger 2001-2017
</metadata>
<g transform="translate(0.000000,200.000000) scale(0.100000,-0.100000)"
fill="#000000" stroke="none">
<path d="M837 1990 c-210 -38 -401 -137 -545 -282 -131 -132 -203 -258 -263
-458 -30 -97 -37 -320 -15 -431 46 -223 142 -398 304 -550 89 -84 139 -119
254 -174 154 -74 224 -89 428 -89 205 0 274 15 429 90 509 244 718 852 466
1354 -101 201 -292 384 -482 464 -143 59 -229 78 -383 82 -80 1 -167 -1 -193
-6z m791 -987 l-3 -628 -627 -3 -628 -2 0 623 c0 343 3 627 7 630 3 4 287 7
630 7 l623 0 -2 -627z"/>
<path d="M455 1538 c-3 -7 -4 -254 -3 -548 l3 -535 545 0 545 0 0 545 0 545
-543 3 c-429 2 -544 0 -547 -10z m702 -523 c50 -148 92 -277 92 -285 1 -12
-10 -16 -46 -15 l-48 0 -25 73 -25 72 -106 0 -107 0 -23 -72 -24 -73 -47 -3
c-34 -2 -48 1 -48 10 0 24 183 553 194 561 6 4 36 6 66 5 l55 -3 92 -270z"/>
<path d="M953 1070 l-38 -120 82 0 82 0 -14 48 c-8 26 -24 80 -36 120 -12 39
-25 72 -30 72 -4 0 -25 -54 -46 -120z"/>
</g>
</svg>
